# xmcd
#
# Track frame offsets:
#	150
#	14012
#	37187
#	54589
#	74875
#	93775
#	110030
#	128615
#	149262
#	168795
#	181972
#
# Disc length: 2631 seconds
#
# Revision: 16
# Processed by: cddbd v1.5.2PL0 Copyright (c) Steve Scherf et al.
# Submitted via: audiograbber 1.83.01
#
DISCID=9e0a450b
DTITLE=Dar Williams - End Of The Summer
DYEAR=1997
DGENRE=Folk
TTITLE0=Are You Out There
TTITLE1=Party Generation
TTITLE2=If I Wrote You
TTITLE3=What Do You Hear In These Sounds
TTITLE4=The End Of The Summer
TTITLE5=Teenagers, Kick Our Butts
TTITLE6=My Friends
TTITLE7=Bought And Sold
TTITLE8=Road Buddy
TTITLE9=It's A War In There
TTITLE10=Better Things
EXTD=
EXTT0=
EXTT1=
EXTT2=
EXTT3=
EXTT4=
EXTT5=
EXTT6=
EXTT7=
EXTT8=
EXTT9=
EXTT10=
PLAYORDER=
